# xmcd CD database file
#
# Track frame offsets:
#	150
#	13654
#	28465
#	42009
#	56840
#	70359
#	84374
#	98535
#	112586
#	126530
#	140406
#	154876
#	168507
#	180868
#	191947
#	205568
#	218196
#	232546
#	246073
#	258922
#
# Disc length: 3636 seconds
#
# Revision: 0
# Processed by: cddbd v1.5.2PL0 Copyright (c) Steve Scherf et al.
# Submitted via: CDex 1.51
#
DISCID=0a0e3214
DTITLE=Lonnie Johnson - Playing with strings
DYEAR=2004
DGENRE=Blues
TTITLE0=Rocks in my bed
TTITLE1=Bull frog Moan
TTITLE2=6/88 Clide
TTITLE3=Four hands are better than two
TTITLE4=Hot fingers
TTITLE5=Blue room blues
TTITLE6=To do this, you got to know how
TTITLE7=A handfull of riffs
TTITLE8=Life saver blues
TTITLE9=Uncle Ned, don't use your head
TTITLE10=Deep minor rythm stomp
TTITLE11=Two tone stomp
TTITLE12=South bound water
TTITLE13=Love story blues
TTITLE14=Playing with the strings
TTITLE15=In love again
TTITLE16=Winnie the wailer
TTITLE17=Blue blood blues
TTITLE18=Away down in the alley
TTITLE19=Rammin' rambler blues
EXTD=YEAR: 2004
EXTT0=
EXTT1=
EXTT2=
EXTT3=
EXTT4=
EXTT5=
EXTT6=
EXTT7=
EXTT8=
EXTT9=
EXTT10=
EXTT11=
EXTT12=
EXTT13=
EXTT14=
EXTT15=
EXTT16=
EXTT17=
EXTT18=
EXTT19=
PLAYORDER=
